<svg width="393" height="396" viewBox="0 0 393 396" fill="none" xmlns="http://www.w3.org/2000/svg">
<rect width="393" height="396" fill="#131313"/>
<path d="M215.918 113.379L225.758 116.204L225.479 117.177L221.391 116.004L219.019 124.265C218.941 124.539 218.851 124.716 218.75 124.796C218.663 124.881 218.49 124.886 218.231 124.811L217.171 124.507L219.748 115.532L215.639 114.352L215.918 113.379ZM225.099 126.989C225.703 125.503 226.307 124.016 226.912 122.529C227.516 121.042 228.12 119.555 228.725 118.068C228.787 117.915 228.842 117.8 228.89 117.722C228.957 117.636 229.037 117.58 229.129 117.552C229.235 117.531 229.378 117.557 229.559 117.63L230.601 118.054L226.704 127.642L225.099 126.989ZM230.058 129.272L234.754 121.045C234.954 120.693 235.11 120.497 235.219 120.456C235.342 120.422 235.547 120.487 235.833 120.651L236.908 121.264L236.039 130.276L236 130.435L236.073 130.399L236.19 130.284L243.474 125.012L244.607 125.659C244.881 125.815 245.038 125.948 245.079 126.058C245.141 126.162 245.093 126.351 244.937 126.624L240.487 134.421C240.383 134.604 240.289 134.723 240.205 134.778C240.134 134.842 240.042 134.867 239.929 134.854C239.836 134.835 239.705 134.778 239.535 134.681L238.617 134.157L242.811 126.81L242.576 127.038L235.354 132.294L234.337 131.714L235.17 122.993L235.268 122.686L231.152 129.896L230.058 129.272ZM242.029 136.18L249.972 131.276C250.436 130.998 250.875 130.855 251.29 130.848C251.715 130.829 252.222 131.064 252.811 131.552C253.342 131.992 253.654 132.415 253.746 132.822C253.837 133.229 253.781 133.708 253.578 134.26L250.297 143.023L248.859 141.832L249.935 139.014L245.602 135.428L243.069 137.041L242.029 136.18ZM246.329 135.008L250.195 138.207L251.934 133.776C252.02 133.555 252.069 133.342 252.082 133.139C252.104 132.923 251.976 132.701 251.699 132.472C251.387 132.213 251.122 132.111 250.903 132.163C250.696 132.225 250.502 132.318 250.322 132.442L246.329 135.008ZM251.854 144.709L259.177 138.351C259.392 138.164 259.558 138.08 259.673 138.099C259.799 138.129 259.94 138.235 260.098 138.416L260.806 139.232L257.407 142.182L261.877 147.33L265.275 144.38L266.411 145.688L259.122 152.016C258.906 152.203 258.74 152.298 258.623 152.3C258.506 152.302 258.354 152.196 258.167 151.981L257.459 151.165L261.112 147.994L256.643 142.846L252.99 146.017L251.854 144.709ZM260.007 154.196L269.111 152.133C269.64 152.021 270.102 152.028 270.497 152.156C270.904 152.276 271.308 152.662 271.707 153.315C272.067 153.903 272.225 154.405 272.179 154.819C272.134 155.234 271.926 155.669 271.554 156.125L265.609 163.351L264.634 161.758L266.566 159.441L263.63 154.643L260.712 155.348L260.007 154.196ZM264.455 154.481L267.074 158.761L270.156 155.134C270.309 154.953 270.424 154.768 270.502 154.579C270.593 154.383 270.545 154.131 270.357 153.824C270.146 153.479 269.928 153.295 269.704 153.274C269.488 153.266 269.274 153.291 269.064 153.349L264.455 154.481ZM266.63 165.409C268.082 164.725 269.534 164.041 270.986 163.357C272.438 162.673 273.89 161.99 275.342 161.306C275.491 161.235 275.61 161.188 275.698 161.163C275.806 161.146 275.903 161.158 275.989 161.2C276.081 161.256 276.169 161.372 276.252 161.549L276.732 162.566L267.368 166.976L266.63 165.409ZM274.766 175.059C274.766 175.059 274.7 174.86 274.567 174.461C274.435 174.063 274.258 173.529 274.036 172.86C273.814 172.191 273.561 171.453 273.278 170.646L269.263 171.978L268.717 170.333L277.43 167.443C277.843 167.306 278.156 167.297 278.37 167.416C278.588 167.549 278.772 167.819 278.923 168.227C279.008 168.436 279.108 168.711 279.221 169.053C279.339 169.409 279.469 169.801 279.611 170.228C279.767 170.65 279.918 171.082 280.064 171.523C280.215 171.979 280.36 172.413 280.497 172.826C280.638 173.253 280.756 173.633 280.851 173.965C280.945 174.297 281.016 174.558 281.063 174.748C281.237 175.512 281.168 176.135 280.854 176.619C280.555 177.098 279.992 177.474 279.166 177.748C278.511 177.965 277.961 178.045 277.515 177.987C277.074 177.944 276.702 177.775 276.399 177.481C276.342 177.452 276.283 177.393 276.221 177.303C276.179 177.222 276.141 177.132 276.108 177.032L276.065 177.046C276.084 177.103 276.105 177.167 276.129 177.238C276.152 177.31 276.171 177.367 276.185 177.409C276.265 177.983 276.153 178.384 275.849 178.611C275.56 178.834 275.244 179.002 274.902 179.115L272.468 179.923C272.326 179.97 272.209 180.024 272.119 180.086C272.043 180.143 272 180.181 271.991 180.2L271.608 179.046C271.542 178.847 271.526 178.679 271.559 178.541C271.592 178.404 271.744 178.29 272.015 178.2L274.279 177.449C274.72 177.303 274.986 177.104 275.076 176.853C275.186 176.611 275.16 176.248 275 175.764L274.766 175.059ZM274.196 170.341C274.262 170.54 274.359 170.856 274.486 171.288C274.628 171.715 274.782 172.178 274.947 172.676C275.117 173.188 275.273 173.658 275.415 174.085C275.556 174.512 275.66 174.826 275.726 175.025C275.882 175.495 276.162 175.86 276.564 176.122C276.986 176.393 277.596 176.396 278.393 176.132C278.934 175.952 279.326 175.704 279.568 175.386C279.829 175.078 279.913 174.687 279.819 174.212C279.762 173.899 279.661 173.522 279.514 173.081C279.382 172.635 279.231 172.179 279.061 171.714C278.905 171.244 278.754 170.812 278.607 170.418C278.475 170.02 278.376 169.721 278.31 169.522C278.295 169.479 278.236 169.396 278.132 169.272C278.042 169.144 277.876 169.12 277.634 169.2L274.196 170.341ZM274.124 182.307C273.965 182.651 273.872 183.075 273.845 183.581C273.835 184.098 273.857 184.626 273.91 185.164C273.981 185.715 274.048 186.191 274.111 186.591C274.134 186.739 274.16 186.909 274.19 187.102C274.221 187.295 274.255 187.464 274.293 187.61C274.4 188.2 274.548 188.709 274.736 189.135C274.939 189.558 275.208 189.873 275.544 190.079C275.895 190.282 276.351 190.34 276.915 190.251C277.596 190.145 278.013 189.898 278.165 189.509C278.317 189.121 278.34 188.586 278.233 187.905C278.198 187.682 278.161 187.445 278.122 187.193C278.082 186.941 278.041 186.675 277.997 186.393C277.953 186.111 277.902 185.785 277.844 185.415C277.779 185 277.728 184.575 277.69 184.141C277.667 183.704 277.702 183.296 277.795 182.917C277.902 182.536 278.103 182.217 278.396 181.958C278.705 181.697 279.17 181.518 279.793 181.421C280.519 181.307 281.109 181.344 281.563 181.531C282.02 181.733 282.382 182.056 282.649 182.5C282.915 182.944 283.126 183.466 283.28 184.064C283.437 184.677 283.57 185.332 283.679 186.028C283.743 186.443 283.809 186.911 283.875 187.432C283.944 187.968 283.984 188.471 283.997 188.939C284.012 189.423 283.966 189.809 283.86 190.099C283.867 190.341 283.821 190.531 283.721 190.668C283.623 190.82 283.485 190.909 283.307 190.937C283.248 190.947 283.174 190.958 283.085 190.972C283.011 190.984 282.937 190.995 282.863 191.007C282.789 191.018 282.737 191.026 282.707 191.031C282.834 190.875 282.918 190.634 282.959 190.309C282.999 189.983 283.01 189.617 282.992 189.21C282.991 188.816 282.969 188.432 282.926 188.059C282.897 187.684 282.865 187.378 282.828 187.141L282.623 185.829C282.539 185.296 282.417 184.806 282.256 184.361C282.096 183.915 281.852 183.574 281.527 183.336C281.218 183.111 280.768 183.045 280.175 183.137C279.715 183.209 279.389 183.352 279.194 183.564C279.002 183.792 278.895 184.081 278.875 184.434C278.869 184.784 278.903 185.196 278.977 185.67C279.067 186.248 279.147 186.76 279.217 187.204C279.286 187.649 279.343 188.012 279.387 188.294C279.489 188.946 279.52 189.533 279.48 190.055C279.455 190.575 279.272 191.006 278.931 191.348C278.604 191.688 278.041 191.92 277.241 192.045C276.455 192.168 275.805 192.087 275.29 191.804C274.777 191.535 274.377 191.111 274.089 190.534C273.804 189.971 273.579 189.308 273.414 188.544C273.341 188.176 273.278 187.822 273.225 187.481C273.157 187.142 273.101 186.786 273.058 186.414C273.005 186.073 272.958 185.678 272.918 185.228C272.878 184.779 272.856 184.343 272.85 183.918C272.862 183.507 272.913 183.157 273.005 182.869C273.114 182.594 273.287 182.438 273.524 182.401L274.124 182.307ZM284.641 194.023L284.673 204.26L283.66 204.263L283.647 200.011L275.052 200.038C274.767 200.039 274.572 200.002 274.467 199.927C274.362 199.867 274.309 199.703 274.308 199.433L274.304 198.33L283.642 198.301L283.628 194.026L284.641 194.023ZM273.709 209.213L277.876 209.791L283.926 206.792L284.539 206.469L284.223 208.742L278.909 211.184L283.351 215.026L283.134 216.586L282.578 216.01L277.641 211.485L274.254 211.015C274.058 211.003 273.904 210.966 273.792 210.905C273.694 210.846 273.622 210.76 273.578 210.648C273.547 210.538 273.548 210.371 273.579 210.149L273.709 209.213ZM281.837 221.632L272.831 219.08L270.948 225.726L269.995 225.456L272.345 217.165L281.588 219.784C281.747 219.829 281.875 219.873 281.972 219.916C282.069 219.959 282.134 220.032 282.167 220.135C282.2 220.238 282.19 220.383 282.137 220.571L281.837 221.632ZM269.167 227.38L277.949 231.33C278.196 231.441 278.351 231.552 278.416 231.663C278.481 231.775 278.461 231.947 278.357 232.179L274.693 240.326L273.79 239.92L276.992 232.799L273.853 231.387L270.918 237.912L270.015 237.506L272.95 230.981L269.359 229.366L266.156 236.486L265.253 236.08L269.167 227.38Z" fill="white"/>
<path d="M212.844 71.1393C212.611 71.806 211.144 75.7393 209.644 79.8726C195.411 118.306 188.277 137.906 187.277 141.139L186.844 142.573L189.211 143.706C190.544 144.339 191.71 144.773 191.844 144.606C191.977 144.473 193.41 139.939 194.977 134.539C196.544 129.139 198.744 121.773 199.811 118.206C200.877 114.639 202.811 107.939 204.144 103.373C205.444 98.7727 207.177 92.7726 207.977 90.0393C210.311 82.0059 213.51 70.1393 213.377 70.006C213.31 69.9393 213.077 70.4393 212.844 71.1393Z" fill="url(#paint0_linear_1_45)"/>
<path d="M132.544 76.3729C135.244 81.4729 155.711 116.339 166.978 135.039C180.411 157.273 182.778 161.239 184.444 164.139C186.411 167.539 187.544 168.739 189.211 169.173C192.711 170.039 197.744 174.639 200.844 179.739C208.144 191.839 209.678 202.806 205.311 211.773C203.144 216.173 199.178 219.673 194.544 221.273C191.678 222.239 187.144 222.306 184.578 221.439C182.478 220.706 179.744 218.339 179.211 216.806C178.811 215.706 178.811 215.706 178.944 217.173C179.211 219.906 181.944 222.773 185.711 224.239C188.244 225.239 193.644 225.306 196.644 224.406C205.344 221.806 212.011 214.406 214.844 204.206C215.544 201.673 215.644 200.673 215.644 195.039C215.644 188.639 215.478 187.206 214.111 182.373C211.211 172.206 201.411 154.239 196.011 149.273C193.978 147.373 190.711 145.339 186.478 143.206C180.278 140.139 179.211 139.106 172.178 129.706C156.644 108.973 148.978 98.6395 145.311 93.5395C137.578 82.7729 131.911 75.1395 132.544 76.3729ZM191.478 154.939C191.478 156.106 189.944 161.206 189.578 161.206C188.778 161.206 187.811 159.473 187.811 157.973C187.811 156.773 188.011 156.306 188.778 155.506C189.778 154.506 191.478 154.173 191.478 154.939ZM193.444 155.739C195.111 157.873 193.544 161.539 190.978 161.539C190.344 161.539 190.344 161.673 191.144 158.439C192.178 154.273 192.244 154.206 193.444 155.739Z" fill="url(#paint1_linear_1_45)"/>
<path d="M210.843 92.6073C209.543 97.8074 206.677 109.074 204.477 117.707C202.31 126.307 199.61 136.641 198.51 140.674L196.51 147.941L198.31 150.074C199.71 151.707 200.143 152.041 200.277 151.607C200.477 151.041 203.943 133.441 207.277 116.207C210.677 98.6074 213.51 83.4406 213.377 83.3406C213.31 83.274 212.177 87.4406 210.843 92.6073Z" fill="url(#paint2_linear_1_45)"/>
<path d="M151.01 97.707C158.277 108.407 168.043 122.44 173.41 129.874C175.343 132.54 177.443 135.44 178.077 136.307C178.71 137.207 180.043 138.507 181.01 139.24C183.343 140.94 186.143 142.607 186.143 142.24C186.143 142.074 185.077 140.474 183.743 138.674C181.043 134.974 159.777 107.174 156.443 103.007C155.277 101.54 152.443 97.9737 150.143 95.0402C143.877 87.107 143.943 87.2403 151.01 97.707Z" fill="url(#paint3_linear_1_45)"/>
<path d="M203.177 155.94C203.41 156.373 204.243 157.873 205.043 159.307C213.443 174.173 217.143 185.84 216.71 195.873C216.443 201.407 215.577 204.873 211.677 215.307C206.743 228.507 205.943 231.94 206.243 238.007C206.477 242.44 207.077 244.773 208.91 248.54C210.91 252.64 214.277 256.007 218.31 257.94C221.01 259.207 221.543 259.373 224.343 259.473C233.01 259.873 238.477 254.573 239.043 245.373C239.41 238.773 236.477 231.873 231.41 227.373C229.243 225.507 225.177 223.407 222.577 222.873C219.91 222.307 215.677 222.573 213.743 223.473C212.843 223.84 212.143 224.073 212.143 223.94C212.143 223.807 213.177 220.54 214.443 216.707C217.977 206.04 218.31 204.14 218.31 195.707C218.277 189.773 218.177 188.173 217.543 185.34C215.61 176.407 211.11 166.44 205.41 158.44C203.143 155.273 202.377 154.44 203.177 155.94ZM218.477 225.74C215.877 226.44 214.177 227.34 212.71 228.773C211.11 230.307 210.143 232.173 210.177 233.607C210.177 234.64 210.21 234.607 210.61 233.14C211.143 231.14 212.377 229.573 214.377 228.24C221.077 223.807 230.143 227.14 234.443 235.607C236.11 238.907 236.61 241.24 236.41 245.107C236.277 247.573 236.043 248.54 235.31 250.04C233.543 253.673 230.81 255.507 226.777 255.807C219.81 256.307 213.51 250.74 210.543 241.54C208.61 235.607 208.91 232.007 211.543 229.007C213.443 226.873 216.71 225.24 219.143 225.24C220.177 225.24 220.11 225.307 218.477 225.74Z" fill="white"/>
<path d="M179.877 162.306C179.477 163.606 179.144 164.94 179.144 165.24C179.144 165.54 180.077 167.206 181.211 168.906C185.077 174.84 186.111 178.206 185.144 182.173C184.477 185.006 176.944 197.439 171.211 205.139C169.511 207.439 169.144 208.173 169.144 209.24C169.144 210.04 169.977 212.706 171.277 216.139C172.477 219.239 173.544 222.173 173.677 222.706C173.877 223.54 173.844 223.606 173.277 223.373C170.277 222.139 168.977 221.773 166.811 221.639C157.011 220.973 147.411 229.506 145.811 240.339C145.111 244.906 145.877 248.573 148.777 254.639C149.844 256.873 150.811 259.039 150.944 259.439C151.511 261.273 151.711 263.84 151.444 265.706C151.044 268.24 149.011 272.506 147.111 274.873C144.977 277.506 144.811 277.84 146.411 276.606C150.044 273.739 153.311 269.073 154.544 265.073C155.077 263.239 155.177 262.34 155.011 260.473C154.811 258.306 154.844 258.14 155.377 258.406C156.577 258.973 162.077 258.939 164.077 258.373C168.677 257.039 172.644 253.806 175.344 249.24C177.277 245.973 178.044 243.873 178.677 240.106C179.377 236.206 179.177 233.24 177.644 225.24C176.144 217.306 175.911 214.106 176.611 210.906C177.577 206.306 179.277 203.539 190.511 188.373C193.944 183.706 195.477 181.339 195.477 180.606C195.477 179.839 192.811 176.439 189.811 173.373C186.311 169.806 184.844 167.739 182.477 162.939C181.644 161.273 180.911 159.906 180.811 159.906C180.711 159.906 180.311 160.973 179.877 162.306ZM170.344 225.773C172.111 226.706 173.677 228.34 174.744 230.373C176.011 232.773 175.977 236.906 174.677 240.706C172.377 247.34 169.044 251.74 164.644 253.906C162.611 254.906 161.944 255.039 159.311 255.139C156.444 255.273 156.211 255.206 154.144 254.139C150.377 252.206 148.577 249.006 148.244 243.873C147.944 238.706 149.544 234.273 153.144 230.439C155.644 227.74 157.311 226.606 160.111 225.639C163.044 224.606 168.211 224.673 170.344 225.773Z" fill="white"/>
<path d="M162.077 227.473C159.811 228.273 156.844 230.573 154.877 232.973C153.277 234.94 150.244 240.107 150.544 240.373C150.611 240.44 151.144 239.573 151.744 238.44C154.211 233.673 158.411 229.873 162.711 228.54C166.577 227.34 169.777 227.773 172.111 229.74C173.677 231.107 174.477 232.94 174.811 236.04L175.044 238.373L175.111 236.34C175.177 232.273 173.577 229.307 170.411 227.74C169.011 227.04 168.211 226.873 166.177 226.873C164.644 226.907 163.011 227.14 162.077 227.473Z" fill="white"/>
<path d="M188.811 169.639C188.811 169.739 189.844 170.806 191.111 172.006C198.444 179.106 204.144 192.106 204.144 201.772C204.144 209.039 200.911 215.706 195.811 218.906C194.977 219.439 194.477 219.872 194.677 219.872C195.511 219.872 199.277 217.006 200.544 215.406C202.211 213.306 203.644 210.239 204.344 207.272C205.044 204.339 205.011 198.639 204.311 195.139C202.644 186.972 198.077 178.039 193.077 173.139C190.911 171.039 188.811 169.306 188.811 169.639Z" fill="white"/>
<path d="M156.837 127.367C144.946 133.998 134.878 143.465 127.531 154.927C120.183 166.389 115.784 179.49 114.724 193.063C113.663 206.637 115.975 220.261 121.454 232.725C126.932 245.189 135.407 256.105 146.124 264.502" stroke="white" stroke-width="1.75" stroke-linecap="round"/>
<path d="M192.445 117.041C186.334 117.383 180.28 118.403 174.395 120.083" stroke="white" stroke-width="1.75" stroke-linecap="round"/>
<path d="M155.678 270.962C173.923 281.526 195.518 284.712 216.036 279.867C236.555 275.022 254.444 262.512 266.036 244.902" stroke="white" stroke-width="1.75" stroke-linecap="round"/>
<defs>
<linearGradient id="paint0_linear_1_45" x1="200.112" y1="70" x2="200.112" y2="144.642" gradientUnits="userSpaceOnUse">
<stop stop-color="#FF8C53"/>
<stop offset="1" stop-color="white"/>
</linearGradient>
<linearGradient id="paint1_linear_1_45" x1="215.561" y1="196.206" x2="132.561" y2="76.2062" gradientUnits="userSpaceOnUse">
<stop offset="0.256149" stop-color="white"/>
<stop offset="1" stop-color="#FF8C53"/>
</linearGradient>
<linearGradient id="paint2_linear_1_45" x1="204.945" y1="83.3398" x2="204.945" y2="151.781" gradientUnits="userSpaceOnUse">
<stop stop-color="#FF8C53"/>
<stop offset="1" stop-color="white"/>
</linearGradient>
<linearGradient id="paint3_linear_1_45" x1="165.857" y1="89.4336" x2="165.857" y2="142.291" gradientUnits="userSpaceOnUse">
<stop stop-color="#FF8C53"/>
<stop offset="1" stop-color="white"/>
</linearGradient>
</defs>
</svg>
