<svg width="329" height="32" viewBox="0 0 329 32" fill="none" xmlns="http://www.w3.org/2000/svg">
<g filter="url(#filter0_d_1_89)">
<path d="M4.02363 0.92H27.2556V3.656H18.1356V21.128C18.1356 21.832 18.0236 22.328 17.7996 22.616C17.6076 22.872 17.1436 23 16.4076 23H13.1916V3.656H4.02363L4.02363 0.92ZM31.9293 23C31.9293 19.608 31.9293 16.232 31.9293 12.872C31.9293 9.48 31.9293 6.104 31.9293 2.744C31.9293 2.328 31.9453 1.992 31.9773 1.736C32.0413 1.48 32.1853 1.288 32.4093 1.16C32.6653 1 33.0653 0.92 33.6093 0.92L36.8733 0.92V23H31.9293ZM44.1168 23V2.984C44.1168 2.024 44.2288 1.448 44.4528 1.256C44.6768 1.032 45.2208 0.92 46.0848 0.92H49.7328L56.9808 17L57.0768 17.384L57.1728 17.288L57.2688 16.904L64.4208 0.92H68.3088C69.1088 0.92 69.6208 1.016 69.8448 1.208C70.1008 1.4 70.2288 1.88 70.2288 2.648V21.224C70.2288 21.768 70.1808 22.168 70.0848 22.424C69.9888 22.648 69.7968 22.808 69.5088 22.904C69.2528 22.968 68.8688 23 68.3568 23L65.2848 23V6.248L65.0448 7.16L57.9408 23H54.7728L47.8608 7.448L47.6208 6.584V23H44.1168ZM74.5146 23L81.2346 4.328C81.6826 3.176 82.2906 2.296 83.0586 1.688C83.8266 1.048 85.0746 0.727999 86.8026 0.727999C88.3386 0.727999 89.5066 1.016 90.3066 1.592C91.1386 2.168 91.7786 3.08 92.2266 4.328L99.0906 23H93.7626L91.6986 17.24H80.3226L78.3066 23H74.5146ZM81.0906 15.176H90.7866L87.7626 6.392C87.6346 5.976 87.4586 5.608 87.2346 5.288C87.0426 4.968 86.6106 4.808 85.9386 4.808C85.2346 4.808 84.7706 4.984 84.5466 5.336C84.3226 5.656 84.1466 6.008 84.0186 6.392L81.0906 15.176ZM103.601 23V2.552C103.601 1.848 103.729 1.4 103.985 1.208C104.241 1.016 104.689 0.92 105.329 0.92H108.545V10.232H121.985V0.92H126.929V21.176C126.929 21.912 126.817 22.408 126.593 22.664C126.401 22.888 125.921 23 125.153 23H121.985V12.92H108.545V23H103.601ZM131.14 23L137.86 4.328C138.308 3.176 138.916 2.296 139.684 1.688C140.452 1.048 141.7 0.727999 143.428 0.727999C144.964 0.727999 146.132 1.016 146.932 1.592C147.764 2.168 148.404 3.08 148.852 4.328L155.716 23H150.388L148.324 17.24H136.948L134.932 23H131.14ZM137.716 15.176H147.412L144.388 6.392C144.26 5.976 144.084 5.608 143.86 5.288C143.668 4.968 143.236 4.808 142.564 4.808C141.86 4.808 141.396 4.984 141.172 5.336C140.948 5.656 140.772 6.008 140.644 6.392L137.716 15.176ZM160.226 23C160.226 19.608 160.226 16.232 160.226 12.872C160.226 9.48 160.226 6.104 160.226 2.744C160.226 2.328 160.242 1.992 160.274 1.736C160.338 1.48 160.482 1.288 160.706 1.16C160.962 1 161.362 0.92 161.906 0.92L165.17 0.92V23H160.226ZM185.95 14.408C185.95 14.408 185.534 14.408 184.702 14.408C183.902 14.408 182.83 14.408 181.486 14.408C180.142 14.408 178.686 14.424 177.118 14.456V23H172.174V3.56C172.174 2.632 172.366 1.976 172.75 1.592C173.166 1.176 173.886 0.951999 174.91 0.92C175.39 0.887999 176.046 0.871999 176.878 0.871999C177.71 0.871999 178.654 0.871999 179.71 0.871999C180.766 0.839999 181.838 0.823999 182.926 0.823999C184.046 0.823999 185.118 0.823999 186.142 0.823999C187.166 0.823999 188.062 0.839999 188.83 0.871999C189.63 0.903999 190.238 0.935999 190.654 0.967999C192.35 1.128 193.598 1.672 194.398 2.6C195.198 3.528 195.598 4.936 195.598 6.824C195.598 8.392 195.406 9.608 195.022 10.472C194.67 11.304 194.126 11.944 193.39 12.392C193.262 12.488 193.054 12.568 192.766 12.632C192.51 12.696 192.238 12.728 191.95 12.728V12.872C192.11 12.872 192.286 12.872 192.478 12.872C192.67 12.872 192.83 12.872 192.958 12.872C194.174 13.096 194.91 13.576 195.166 14.312C195.422 15.048 195.55 15.8 195.55 16.568V21.656C195.55 22.072 195.582 22.392 195.646 22.616C195.742 22.84 195.806 22.968 195.838 23L192.238 23C191.694 23 191.262 22.92 190.942 22.76C190.622 22.568 190.462 22.12 190.462 21.416V16.904C190.462 15.912 190.238 15.256 189.79 14.936C189.374 14.584 188.622 14.408 187.534 14.408H185.95ZM177.118 11.864C177.534 11.864 178.174 11.88 179.038 11.912C179.934 11.912 180.91 11.928 181.966 11.96C183.022 11.96 183.998 11.96 184.894 11.96C185.79 11.96 186.43 11.96 186.814 11.96C187.806 11.96 188.67 11.656 189.406 11.048C190.174 10.44 190.558 9.304 190.558 7.64C190.558 6.488 190.334 5.576 189.886 4.904C189.47 4.232 188.782 3.848 187.822 3.752C187.246 3.656 186.494 3.608 185.566 3.608C184.638 3.576 183.678 3.56 182.686 3.56C181.694 3.56 180.782 3.576 179.95 3.608C179.15 3.608 178.542 3.624 178.126 3.656C178.03 3.656 177.838 3.704 177.55 3.8C177.262 3.896 177.118 4.2 177.118 4.712V11.864ZM200.554 19.064C201.258 19.48 202.17 19.8 203.29 20.024C204.442 20.216 205.626 20.344 206.842 20.408C208.058 20.44 209.114 20.456 210.01 20.456C210.362 20.456 210.762 20.456 211.21 20.456C211.69 20.424 212.106 20.408 212.458 20.408C213.61 20.376 214.618 20.248 215.482 20.024C216.346 19.768 217.002 19.352 217.45 18.776C217.93 18.2 218.17 17.384 218.17 16.328C218.17 15.016 217.818 14.168 217.114 13.784C216.442 13.4 215.45 13.208 214.138 13.208C213.69 13.208 213.21 13.208 212.698 13.208C212.186 13.208 211.594 13.208 210.922 13.208C210.282 13.208 209.53 13.208 208.666 13.208C207.706 13.208 206.746 13.16 205.786 13.064C204.826 12.968 203.962 12.76 203.194 12.44C202.426 12.088 201.802 11.544 201.322 10.808C200.842 10.04 200.602 8.968 200.602 7.592C200.602 5.992 200.89 4.728 201.466 3.8C202.042 2.872 202.842 2.2 203.866 1.784C204.922 1.336 206.122 1.048 207.466 0.92C208.842 0.791999 210.346 0.727999 211.978 0.727999C212.938 0.727999 213.994 0.743999 215.146 0.775999C216.298 0.807999 217.402 0.887999 218.458 1.016C219.514 1.112 220.33 1.288 220.906 1.544C221.578 1.608 222.09 1.816 222.442 2.168C222.826 2.488 223.018 2.904 223.018 3.416C223.018 3.512 223.018 3.672 223.018 3.896C223.018 4.12 223.018 4.328 223.018 4.52C223.018 4.712 223.018 4.856 223.018 4.952C222.762 4.632 222.282 4.392 221.578 4.232C220.906 4.04 220.138 3.896 219.274 3.8C218.41 3.704 217.562 3.64 216.73 3.608C215.93 3.544 215.242 3.512 214.666 3.512H211.402C210.314 3.512 209.338 3.608 208.474 3.8C207.61 3.96 206.922 4.312 206.41 4.856C205.898 5.368 205.642 6.168 205.642 7.256C205.642 8.088 205.802 8.728 206.122 9.176C206.474 9.592 206.97 9.88 207.61 10.04C208.282 10.168 209.066 10.232 209.962 10.232C211.434 10.232 212.682 10.232 213.706 10.232C214.73 10.232 215.514 10.232 216.058 10.232C217.498 10.232 218.762 10.36 219.85 10.616C220.97 10.84 221.834 11.368 222.442 12.2C223.082 13.032 223.402 14.344 223.402 16.136C223.402 17.832 223.034 19.192 222.298 20.216C221.562 21.208 220.554 21.928 219.274 22.376C217.994 22.792 216.522 23.048 214.858 23.144C213.866 23.208 212.906 23.24 211.978 23.24C211.05 23.272 210.074 23.272 209.05 23.24C208.122 23.24 207.162 23.208 206.17 23.144C205.178 23.08 204.25 22.968 203.386 22.808C202.554 22.616 201.866 22.36 201.322 22.04C200.81 21.72 200.554 21.288 200.554 20.744V19.064ZM226.539 0.92L249.771 0.92V3.656H240.651V21.128C240.651 21.832 240.539 22.328 240.315 22.616C240.123 22.872 239.659 23 238.923 23H235.707V3.656L226.539 3.656V0.92ZM260.589 23V14.072L252.093 2.12L251.229 0.92H257.901L264.237 10.712L270.573 0.92H275.037L273.933 2.264L265.533 14.072V20.984C265.565 21.496 265.517 21.912 265.389 22.232C265.261 22.52 265.037 22.728 264.717 22.856C264.397 22.952 263.949 23 263.373 23H260.589ZM283.857 0.92V20.264H298.449V23H278.961V2.792C278.961 2.376 278.977 2.04 279.009 1.784C279.041 1.496 279.185 1.288 279.441 1.16C279.697 1 280.097 0.92 280.641 0.92H283.857ZM302.586 23V2.744C302.586 2.04 302.682 1.56 302.874 1.304C303.098 1.048 303.562 0.92 304.266 0.92H324.234V3.656H307.53V10.136H322.794V12.872H307.53V20.264L324.234 20.264V23L302.586 23Z" fill="white"/>
</g>
<defs>
<filter id="filter0_d_1_89" x="0.0236244" y="0.728027" width="328.21" height="30.5601" filterUnits="userSpaceOnUse" color-interpolation-filters="sRGB">
<feFlood flood-opacity="0" result="BackgroundImageFix"/>
<feColorMatrix in="SourceAlpha" type="matrix" values="0 0 0 0 0 0 0 0 0 0 0 0 0 0 0 0 0 0 127 0" result="hardAlpha"/>
<feOffset dy="4"/>
<feGaussianBlur stdDeviation="2"/>
<feComposite in2="hardAlpha" operator="out"/>
<feColorMatrix type="matrix" values="0 0 0 0 0 0 0 0 0 0 0 0 0 0 0 0 0 0 0.25 0"/>
<feBlend mode="normal" in2="BackgroundImageFix" result="effect1_dropShadow_1_89"/>
<feBlend mode="normal" in="SourceGraphic" in2="effect1_dropShadow_1_89" result="shape"/>
</filter>
</defs>
</svg>
