<svg width="393" height="396" viewBox="0 0 393 396" fill="none" xmlns="http://www.w3.org/2000/svg">
<rect width="393" height="396" fill="white"/>
<path d="M215.773 113.334L225.604 116.156L225.324 117.129L221.241 115.956L218.872 124.209C218.793 124.483 218.703 124.66 218.602 124.74C218.516 124.824 218.343 124.829 218.084 124.755L217.025 124.451L219.599 115.485L215.494 114.306L215.773 113.334ZM224.945 126.931C225.549 125.446 226.152 123.96 226.756 122.475C227.36 120.989 227.964 119.504 228.567 118.019C228.629 117.866 228.684 117.751 228.732 117.673C228.799 117.587 228.879 117.531 228.971 117.503C229.077 117.482 229.22 117.508 229.4 117.581L230.442 118.004L226.548 127.583L224.945 126.931ZM229.899 129.211L234.59 120.992C234.791 120.641 234.946 120.445 235.056 120.404C235.178 120.371 235.383 120.435 235.669 120.599L236.743 121.212L235.875 130.215L235.836 130.374L235.908 130.337L236.025 130.223L243.302 124.955L244.434 125.602C244.708 125.758 244.865 125.891 244.906 126C244.967 126.104 244.92 126.293 244.764 126.566L240.318 134.355C240.214 134.538 240.12 134.657 240.036 134.712C239.966 134.776 239.874 134.801 239.76 134.788C239.668 134.769 239.536 134.712 239.367 134.615L238.45 134.091L242.639 126.751L242.405 126.98L235.19 132.231L234.174 131.651L235.007 122.938L235.104 122.632L230.992 129.835L229.899 129.211ZM241.859 136.113L249.794 131.214C250.257 130.936 250.696 130.793 251.111 130.786C251.535 130.767 252.041 131.002 252.63 131.489C253.161 131.928 253.472 132.351 253.564 132.758C253.655 133.164 253.599 133.643 253.396 134.195L250.118 142.949L248.681 141.759L249.757 138.944L245.428 135.361L242.898 136.973L241.859 136.113ZM246.154 134.941L250.016 138.137L251.754 133.711C251.839 133.49 251.888 133.278 251.901 133.074C251.923 132.859 251.796 132.637 251.519 132.408C251.207 132.15 250.942 132.047 250.724 132.1C250.517 132.162 250.323 132.255 250.143 132.378L246.154 134.941ZM251.674 144.633L258.99 138.282C259.205 138.095 259.37 138.011 259.485 138.03C259.611 138.06 259.752 138.166 259.909 138.347L260.617 139.161L257.222 142.109L261.687 147.252L265.081 144.305L266.216 145.612L258.934 151.933C258.719 152.12 258.553 152.214 258.436 152.217C258.319 152.219 258.167 152.113 257.981 151.898L257.273 151.083L260.923 147.915L256.458 142.772L252.809 145.94L251.674 144.633ZM259.819 154.111L268.914 152.05C269.442 151.938 269.904 151.945 270.298 152.073C270.705 152.193 271.108 152.578 271.507 153.23C271.867 153.818 272.024 154.319 271.979 154.734C271.934 155.148 271.726 155.582 271.354 156.038L265.415 163.256L264.441 161.665L266.372 159.351L263.439 154.557L260.523 155.261L259.819 154.111ZM264.262 154.396L266.878 158.672L269.958 155.048C270.11 154.867 270.226 154.682 270.304 154.494C270.395 154.298 270.346 154.046 270.158 153.739C269.947 153.394 269.73 153.211 269.506 153.19C269.29 153.182 269.077 153.207 268.867 153.265L264.262 154.396ZM266.435 165.312C267.886 164.629 269.336 163.946 270.787 163.263C272.238 162.58 273.688 161.897 275.139 161.213C275.288 161.143 275.406 161.096 275.494 161.071C275.602 161.054 275.699 161.066 275.785 161.108C275.877 161.164 275.965 161.28 276.048 161.456L276.527 162.473L267.172 166.878L266.435 165.312ZM274.563 174.954C274.563 174.954 274.497 174.754 274.365 174.356C274.233 173.958 274.056 173.425 273.834 172.756C273.612 172.088 273.359 171.35 273.076 170.544L269.065 171.875L268.52 170.232L277.225 167.344C277.637 167.207 277.95 167.199 278.163 167.317C278.381 167.45 278.565 167.721 278.716 168.128C278.801 168.337 278.9 168.612 279.014 168.953C279.132 169.309 279.262 169.7 279.403 170.127C279.559 170.549 279.71 170.98 279.856 171.421C280.007 171.876 280.151 172.31 280.288 172.722C280.429 173.149 280.548 173.528 280.642 173.86C280.736 174.192 280.807 174.453 280.854 174.642C281.028 175.406 280.959 176.029 280.645 176.512C280.346 176.99 279.784 177.366 278.959 177.639C278.305 177.856 277.755 177.936 277.31 177.879C276.869 177.836 276.497 177.667 276.194 177.372C276.137 177.344 276.078 177.285 276.017 177.195C275.974 177.114 275.937 177.024 275.903 176.924L275.861 176.938C275.88 176.995 275.901 177.059 275.925 177.13C275.948 177.202 275.967 177.259 275.981 177.301C276.061 177.875 275.949 178.275 275.645 178.502C275.356 178.724 275.041 178.892 274.699 179.005L272.267 179.812C272.125 179.86 272.009 179.914 271.919 179.975C271.843 180.032 271.8 180.07 271.791 180.089L271.408 178.937C271.342 178.738 271.326 178.569 271.359 178.432C271.393 178.295 271.545 178.181 271.815 178.091L274.076 177.341C274.517 177.195 274.783 176.996 274.873 176.745C274.982 176.504 274.957 176.141 274.797 175.657L274.563 174.954ZM273.994 170.24C274.06 170.439 274.156 170.754 274.284 171.186C274.425 171.612 274.579 172.075 274.744 172.572C274.914 173.084 275.07 173.554 275.211 173.981C275.353 174.407 275.456 174.72 275.523 174.919C275.678 175.389 275.957 175.754 276.36 176.015C276.781 176.286 277.39 176.289 278.186 176.025C278.727 175.845 279.118 175.597 279.36 175.28C279.622 174.972 279.705 174.581 279.611 174.107C279.554 173.795 279.453 173.418 279.307 172.977C279.175 172.531 279.024 172.076 278.854 171.612C278.698 171.142 278.547 170.711 278.401 170.317C278.268 169.919 278.169 169.62 278.103 169.421C278.089 169.379 278.03 169.295 277.926 169.172C277.836 169.044 277.67 169.02 277.428 169.1L273.994 170.24ZM273.922 182.194C273.763 182.538 273.67 182.962 273.643 183.466C273.633 183.984 273.655 184.511 273.708 185.049C273.779 185.599 273.846 186.074 273.908 186.473C273.931 186.622 273.958 186.792 273.988 186.984C274.018 187.177 274.052 187.346 274.09 187.492C274.198 188.082 274.345 188.589 274.533 189.015C274.736 189.438 275.005 189.753 275.341 189.958C275.691 190.161 276.147 190.219 276.71 190.131C277.391 190.024 277.807 189.777 277.959 189.389C278.111 189.002 278.133 188.467 278.027 187.786C277.992 187.564 277.955 187.327 277.916 187.076C277.876 186.824 277.835 186.557 277.791 186.276C277.747 185.995 277.696 185.669 277.638 185.299C277.573 184.884 277.522 184.46 277.484 184.026C277.462 183.59 277.497 183.182 277.589 182.804C277.696 182.423 277.897 182.104 278.19 181.846C278.498 181.585 278.963 181.406 279.585 181.309C280.31 181.195 280.9 181.232 281.354 181.419C281.81 181.621 282.172 181.943 282.438 182.387C282.704 182.831 282.915 183.352 283.069 183.949C283.225 184.562 283.358 185.216 283.467 185.912C283.532 186.326 283.597 186.794 283.664 187.314C283.732 187.85 283.772 188.352 283.785 188.82C283.8 189.303 283.754 189.689 283.648 189.979C283.655 190.22 283.609 190.41 283.509 190.546C283.411 190.698 283.274 190.788 283.096 190.816C283.037 190.825 282.963 190.837 282.874 190.851C282.8 190.862 282.726 190.874 282.652 190.885C282.578 190.897 282.526 190.905 282.496 190.91C282.624 190.753 282.707 190.512 282.748 190.188C282.788 189.863 282.799 189.497 282.781 189.091C282.78 188.696 282.758 188.313 282.715 187.941C282.687 187.566 282.654 187.26 282.617 187.023L282.412 185.713C282.329 185.18 282.207 184.691 282.046 184.246C281.886 183.801 281.643 183.459 281.317 183.222C281.009 182.997 280.559 182.931 279.967 183.024C279.508 183.096 279.181 183.238 278.987 183.45C278.795 183.677 278.688 183.967 278.668 184.319C278.662 184.669 278.696 185.08 278.77 185.554C278.86 186.132 278.94 186.642 279.009 187.087C279.079 187.531 279.136 187.894 279.179 188.175C279.281 188.826 279.312 189.413 279.273 189.935C279.248 190.454 279.065 190.885 278.724 191.226C278.398 191.565 277.835 191.798 277.035 191.923C276.251 192.045 275.601 191.965 275.087 191.681C274.574 191.413 274.175 190.99 273.887 190.413C273.602 189.851 273.377 189.188 273.212 188.425C273.14 188.057 273.077 187.703 273.024 187.363C272.956 187.024 272.9 186.669 272.857 186.297C272.804 185.956 272.757 185.561 272.717 185.113C272.677 184.664 272.655 184.228 272.649 183.804C272.661 183.393 272.712 183.043 272.804 182.756C272.912 182.481 273.085 182.325 273.322 182.288L273.922 182.194ZM284.428 193.898L284.46 204.126L283.449 204.129L283.436 199.88L274.849 199.907C274.564 199.908 274.369 199.871 274.264 199.797C274.159 199.737 274.106 199.573 274.105 199.303L274.102 198.201L283.43 198.172L283.417 193.901L284.428 193.898ZM273.507 209.073L277.67 209.651L283.714 206.655L284.327 206.332L284.011 208.603L278.702 211.043L283.139 214.881L282.923 216.44L282.368 215.863L277.435 211.343L274.051 210.873C273.856 210.861 273.702 210.825 273.59 210.764C273.492 210.705 273.421 210.619 273.376 210.507C273.346 210.397 273.346 210.231 273.377 210.008L273.507 209.073ZM281.627 221.48L272.63 218.931L270.749 225.57L269.797 225.3L272.144 217.018L281.379 219.634C281.537 219.679 281.665 219.723 281.762 219.766C281.859 219.809 281.924 219.882 281.957 219.985C281.99 220.088 281.98 220.233 281.927 220.42L281.627 221.48ZM268.97 227.222L277.743 231.169C277.989 231.279 278.145 231.39 278.21 231.502C278.275 231.613 278.255 231.785 278.15 232.017L274.49 240.155L273.588 239.75L276.787 232.636L273.651 231.226L270.719 237.745L269.817 237.339L272.749 230.82L269.162 229.206L265.962 236.32L265.06 235.914L268.97 227.222Z" fill="#131313"/>
<path d="M200.117 267.054C237.497 267.054 267.8 236.751 267.8 199.371C267.8 161.99 237.497 131.688 200.117 131.688C162.736 131.688 132.434 161.99 132.434 199.371C132.434 236.751 162.736 267.054 200.117 267.054Z" fill="#131313"/>
<path d="M212.703 71.1382C212.47 71.8042 211.005 75.7336 209.506 79.8629C195.287 118.258 188.16 137.839 187.161 141.069L186.729 142.501L189.093 143.633C190.425 144.266 191.59 144.699 191.724 144.532C191.857 144.399 193.289 139.87 194.854 134.476C196.419 129.081 198.617 121.722 199.682 118.158C200.748 114.595 202.679 107.902 204.011 103.34C205.31 98.7443 207.042 92.7502 207.841 90.0195C210.172 81.9941 213.369 70.1392 213.236 70.006C213.169 69.9394 212.936 70.4389 212.703 71.1382Z" fill="url(#paint0_linear_1_60)"/>
<path d="M132.482 76.3649C135.179 81.4599 155.626 116.292 166.881 134.974C180.301 157.185 182.666 161.148 184.331 164.045C186.295 167.442 187.428 168.64 189.092 169.073C192.589 169.939 197.618 174.535 200.714 179.629C208.007 191.718 209.539 202.673 205.177 211.631C203.012 216.027 199.049 219.524 194.421 221.122C191.557 222.088 187.028 222.154 184.464 221.288C182.366 220.556 179.635 218.191 179.102 216.66C178.703 215.561 178.703 215.561 178.836 217.026C179.102 219.757 181.833 222.62 185.596 224.086C188.127 225.085 193.522 225.151 196.519 224.252C205.21 221.655 211.87 214.262 214.701 204.072C215.4 201.541 215.5 200.542 215.5 194.914C215.5 188.521 215.333 187.089 213.968 182.26C211.071 172.104 201.28 154.155 195.886 149.193C193.854 147.295 190.591 145.263 186.362 143.132C180.168 140.069 179.102 139.036 172.076 129.646C156.558 108.933 148.899 98.6095 145.236 93.5146C137.51 82.7586 131.849 75.1328 132.482 76.3649ZM191.357 154.854C191.357 156.02 189.825 161.115 189.459 161.115C188.66 161.115 187.694 159.383 187.694 157.884C187.694 156.686 187.894 156.219 188.66 155.42C189.659 154.421 191.357 154.088 191.357 154.854ZM193.322 155.653C194.987 157.785 193.422 161.447 190.857 161.447C190.225 161.447 190.225 161.581 191.024 158.351C192.056 154.188 192.123 154.121 193.322 155.653Z" fill="url(#paint1_linear_1_60)"/>
<path d="M210.704 92.5825C209.405 97.7775 206.541 109.033 204.344 117.658C202.179 126.249 199.482 136.572 198.383 140.602L196.385 147.861L198.183 149.992C199.582 151.624 200.014 151.957 200.148 151.524C200.348 150.958 203.811 133.376 207.141 116.159C210.538 98.5767 213.368 83.4249 213.235 83.325C213.168 83.2584 212.036 87.421 210.704 92.5825Z" fill="url(#paint2_linear_1_60)"/>
<path d="M150.93 97.6773C158.19 108.367 167.947 122.386 173.308 129.812C175.239 132.476 177.337 135.374 177.97 136.239C178.603 137.138 179.935 138.437 180.901 139.17C183.232 140.868 186.029 142.533 186.029 142.167C186.029 142 184.963 140.402 183.631 138.604C180.934 134.907 159.688 107.135 156.358 102.972C155.193 101.507 152.362 97.9438 150.064 95.0132C143.804 87.0878 143.87 87.221 150.93 97.6773Z" fill="url(#paint3_linear_1_60)"/>
<path d="M203.046 155.853C203.279 156.286 204.111 157.785 204.91 159.217C213.302 174.069 216.998 185.724 216.565 195.747C216.299 201.275 215.433 204.738 211.537 215.161C206.608 228.348 205.809 231.778 206.109 237.839C206.342 242.268 206.942 244.599 208.773 248.362C210.771 252.458 214.135 255.821 218.164 257.753C220.861 259.018 221.394 259.185 224.191 259.284C232.849 259.684 238.311 254.389 238.877 245.198C239.243 238.605 236.313 231.712 231.251 227.216C229.086 225.351 225.024 223.253 222.426 222.721C219.762 222.154 215.533 222.421 213.602 223.32C212.702 223.686 212.003 223.919 212.003 223.786C212.003 223.653 213.036 220.39 214.301 216.56C217.831 205.904 218.164 204.006 218.164 195.581C218.131 189.653 218.031 188.055 217.398 185.224C215.466 176.3 210.971 166.343 205.277 158.351C203.012 155.187 202.246 154.355 203.046 155.853ZM218.33 225.584C215.733 226.284 214.035 227.183 212.569 228.615C210.971 230.146 210.005 232.011 210.039 233.443C210.039 234.476 210.072 234.442 210.471 232.977C211.004 230.979 212.236 229.414 214.234 228.082C220.928 223.653 229.985 226.983 234.281 235.441C235.946 238.738 236.446 241.069 236.246 244.932C236.113 247.396 235.88 248.362 235.147 249.86C233.382 253.49 230.651 255.322 226.622 255.621C219.662 256.121 213.369 250.56 210.405 241.369C208.473 235.441 208.773 231.845 211.404 228.848C213.302 226.717 216.565 225.085 218.996 225.085C220.029 225.085 219.962 225.151 218.33 225.584Z" fill="white"/>
<path d="M179.769 162.214C179.369 163.513 179.036 164.845 179.036 165.144C179.036 165.444 179.969 167.109 181.101 168.808C184.964 174.735 185.996 178.098 185.03 182.061C184.365 184.892 176.839 197.313 171.111 205.005C169.413 207.303 169.046 208.036 169.046 209.101C169.046 209.9 169.879 212.564 171.178 215.994C172.376 219.091 173.442 222.022 173.575 222.554C173.775 223.387 173.742 223.454 173.176 223.221C170.179 221.988 168.88 221.622 166.715 221.489C156.925 220.823 147.334 229.348 145.736 240.17C145.037 244.733 145.803 248.396 148.7 254.456C149.765 256.687 150.731 258.852 150.864 259.251C151.43 261.083 151.63 263.647 151.364 265.512C150.964 268.043 148.933 272.305 147.035 274.67C144.904 277.3 144.737 277.633 146.335 276.401C149.965 273.537 153.229 268.875 154.461 264.879C154.994 263.048 155.093 262.149 154.927 260.284C154.727 258.119 154.76 257.953 155.293 258.219C156.492 258.785 161.987 258.752 163.985 258.186C168.58 256.854 172.543 253.624 175.24 249.061C177.172 245.798 177.937 243.7 178.57 239.937C179.27 236.041 179.07 233.077 177.538 225.085C176.039 217.16 175.806 213.963 176.506 210.766C177.471 206.171 179.17 203.407 190.392 188.255C193.822 183.593 195.354 181.229 195.354 180.496C195.354 179.73 192.69 176.333 189.693 173.27C186.196 169.707 184.731 167.642 182.367 162.847C181.534 161.182 180.801 159.816 180.701 159.816C180.602 159.816 180.202 160.882 179.769 162.214ZM170.245 225.618C172.01 226.55 173.575 228.182 174.641 230.214C175.906 232.611 175.873 236.74 174.574 240.537C172.277 247.163 168.946 251.559 164.551 253.724C162.519 254.723 161.853 254.856 159.223 254.956C156.359 255.089 156.126 255.022 154.061 253.957C150.298 252.025 148.5 248.828 148.167 243.7C147.867 238.539 149.466 234.11 153.062 230.28C155.56 227.583 157.225 226.451 160.022 225.485C162.952 224.453 168.114 224.519 170.245 225.618Z" fill="white"/>
<path d="M161.986 227.316C159.721 228.115 156.758 230.413 154.793 232.811C153.194 234.776 150.164 239.937 150.464 240.203C150.53 240.27 151.063 239.404 151.663 238.272C154.127 233.51 158.323 229.714 162.618 228.382C166.481 227.183 169.678 227.616 172.009 229.581C173.574 230.946 174.374 232.777 174.706 235.874L174.94 238.205L175.006 236.174C175.073 232.111 173.474 229.148 170.311 227.583C168.912 226.883 168.113 226.717 166.082 226.717C164.55 226.75 162.918 226.983 161.986 227.316Z" fill="white"/>
<path d="M188.693 169.541C188.693 169.641 189.726 170.707 190.991 171.906C198.317 178.999 204.012 191.986 204.012 201.643C204.012 208.902 200.781 215.562 195.686 218.759C194.854 219.292 194.355 219.725 194.554 219.725C195.387 219.725 199.15 216.861 200.415 215.263C202.08 213.165 203.512 210.101 204.212 207.137C204.911 204.207 204.877 198.513 204.178 195.016C202.513 186.857 197.951 177.933 192.956 173.038C190.791 170.94 188.693 169.208 188.693 169.541Z" fill="white"/>
<path d="M156.752 127.311C144.873 133.935 134.815 143.393 127.475 154.843C120.135 166.294 115.74 179.382 114.68 192.942C113.621 206.502 115.931 220.113 121.404 232.565C126.877 245.016 135.343 255.921 146.05 264.31" stroke="#131313" stroke-width="1.74827" stroke-linecap="round"/>
<path d="M192.324 116.992C186.219 117.334 180.171 118.353 174.291 120.031" stroke="#131313" stroke-width="1.74827" stroke-linecap="round"/>
<path d="M155.592 270.764C173.819 281.318 195.393 284.501 215.891 279.66C236.389 274.82 254.26 262.323 265.841 244.73" stroke="#131313" stroke-width="1.74827" stroke-linecap="round"/>
<defs>
<linearGradient id="paint0_linear_1_60" x1="199.984" y1="70" x2="200" y2="158.5" gradientUnits="userSpaceOnUse">
<stop stop-color="#131313"/>
<stop offset="1" stop-color="#797979"/>
</linearGradient>
<linearGradient id="paint1_linear_1_60" x1="215.416" y1="196.08" x2="132.498" y2="76.1984" gradientUnits="userSpaceOnUse">
<stop stop-color="white"/>
<stop offset="0.743851" stop-color="#131313"/>
</linearGradient>
<linearGradient id="paint2_linear_1_60" x1="204.812" y1="83.3242" x2="204.812" y2="151.697" gradientUnits="userSpaceOnUse">
<stop stop-color="#131313"/>
<stop offset="1" stop-color="#797979"/>
</linearGradient>
<linearGradient id="paint3_linear_1_60" x1="165.762" y1="89.4121" x2="165.762" y2="142.218" gradientUnits="userSpaceOnUse">
<stop stop-color="#131313"/>
<stop offset="1" stop-color="#797979"/>
</linearGradient>
</defs>
</svg>
