<svg width="254" height="257" viewBox="0 0 254 257" fill="none" xmlns="http://www.w3.org/2000/svg">
<path d="M145.918 43.3789L155.758 46.2042L155.479 47.1774L151.391 46.0039L149.019 54.2652C148.941 54.5389 148.851 54.7162 148.75 54.7964C148.663 54.8807 148.49 54.8857 148.231 54.8112L147.171 54.5069L149.748 45.5319L145.639 44.3522L145.918 43.3789ZM155.099 56.9894C155.703 55.5027 156.307 54.0157 156.912 52.5289C157.516 51.0419 158.12 49.5552 158.725 48.0682C158.787 47.9154 158.842 47.8002 158.89 47.7224C158.957 47.6364 159.037 47.5797 159.129 47.5524C159.235 47.5307 159.378 47.5567 159.559 47.6299L160.601 48.0537L156.704 57.6419L155.099 56.9894ZM160.058 59.2717L164.754 51.0449C164.954 50.6932 165.11 50.4969 165.219 50.4559C165.342 50.4224 165.547 50.4874 165.833 50.6509L166.908 51.2644L166.039 60.2762L166 60.4354L166.073 60.3989L166.19 60.2844L173.474 55.0119L174.607 55.6589C174.881 55.8149 175.038 55.9479 175.079 56.0577C175.141 56.1619 175.093 56.3507 174.937 56.6244L170.487 64.4212C170.383 64.6037 170.289 64.7227 170.205 64.7784C170.134 64.8419 170.042 64.8669 169.929 64.8539C169.836 64.8354 169.705 64.7779 169.535 64.6812L168.617 64.1569L172.811 56.8097L172.576 57.0384L165.354 62.2944L164.337 61.7144L165.17 52.9927L165.268 52.6857L161.152 59.8964L160.058 59.2717ZM172.029 66.1802L179.972 61.2762C180.436 60.9979 180.875 60.8554 181.29 60.8482C181.715 60.8294 182.222 61.0639 182.811 61.5517C183.342 61.9917 183.654 62.4152 183.746 62.8219C183.837 63.2289 183.781 63.7082 183.578 64.2602L180.297 73.0232L178.859 71.8324L179.935 69.0142L175.602 65.4279L173.069 67.0409L172.029 66.1802ZM176.329 65.0077L180.195 68.2067L181.934 63.7759C182.02 63.5547 182.069 63.3424 182.082 63.1387C182.104 62.9234 181.976 62.7012 181.699 62.4717C181.387 62.2134 181.122 62.1107 180.903 62.1632C180.696 62.2254 180.502 62.3182 180.322 62.4417L176.329 65.0077ZM181.854 74.7087L189.177 68.3514C189.392 68.1644 189.558 68.0804 189.673 68.0994C189.799 68.1294 189.94 68.2352 190.098 68.4164L190.806 69.2319L187.407 72.1819L191.877 77.3302L195.275 74.3802L196.411 75.6884L189.122 82.0162C188.906 82.2029 188.74 82.2977 188.623 82.2999C188.506 82.3024 188.354 82.1959 188.167 81.9807L187.459 81.1652L191.112 77.9939L186.643 72.8457L182.99 76.0169L181.854 74.7087ZM190.007 84.1962L199.111 82.1332C199.64 82.0207 200.102 82.0282 200.497 82.1559C200.904 82.2759 201.308 82.6622 201.707 83.3147C202.067 83.9032 202.225 84.4047 202.179 84.8194C202.134 85.2339 201.926 85.6692 201.554 86.1252L195.609 93.3507L194.634 91.7577L196.566 89.4409L193.63 84.6429L190.712 85.3477L190.007 84.1962ZM194.455 84.4814L197.074 88.7612L200.156 85.1342C200.309 84.9527 200.424 84.7677 200.502 84.5792C200.593 84.3829 200.545 84.1312 200.357 83.8242C200.146 83.4787 199.928 83.2954 199.704 83.2742C199.488 83.2659 199.274 83.2909 199.064 83.3492L194.455 84.4814ZM196.63 95.4087C198.082 94.7249 199.534 94.0409 200.986 93.3572C202.438 92.6734 203.89 91.9897 205.342 91.3057C205.491 91.2354 205.61 91.1879 205.698 91.1632C205.806 91.1457 205.903 91.1579 205.989 91.2002C206.081 91.2562 206.169 91.3722 206.252 91.5487L206.732 92.5664L197.368 96.9759L196.63 95.4087ZM204.766 105.059C204.766 105.059 204.7 104.86 204.567 104.461C204.435 104.063 204.258 103.529 204.036 102.86C203.814 102.191 203.561 101.453 203.278 100.646L199.263 101.978L198.717 100.333L207.43 97.4427C207.843 97.3057 208.156 97.2967 208.37 97.4157C208.588 97.5487 208.772 97.8194 208.923 98.2274C209.008 98.4362 209.108 98.7114 209.221 99.0532C209.339 99.4092 209.469 99.8007 209.611 100.228C209.767 100.65 209.918 101.082 210.064 101.523C210.215 101.979 210.36 102.413 210.497 102.826C210.638 103.253 210.756 103.633 210.851 103.965C210.945 104.297 211.016 104.558 211.063 104.748C211.237 105.512 211.168 106.135 210.854 106.619C210.555 107.098 209.992 107.474 209.166 107.748C208.511 107.965 207.961 108.045 207.515 107.987C207.074 107.944 206.702 107.775 206.399 107.481C206.342 107.452 206.283 107.393 206.221 107.303C206.179 107.222 206.141 107.132 206.108 107.032L206.065 107.046C206.084 107.103 206.105 107.167 206.129 107.238C206.152 107.31 206.171 107.367 206.185 107.409C206.265 107.983 206.153 108.384 205.849 108.611C205.56 108.834 205.244 109.002 204.902 109.115L202.468 109.923C202.326 109.97 202.209 110.024 202.119 110.086C202.043 110.143 202 110.181 201.991 110.2L201.608 109.046C201.542 108.847 201.526 108.679 201.559 108.541C201.592 108.404 201.744 108.29 202.015 108.2L204.279 107.449C204.72 107.303 204.986 107.104 205.076 106.853C205.186 106.611 205.16 106.248 205 105.764L204.766 105.059ZM204.196 100.341C204.262 100.54 204.359 100.856 204.486 101.288C204.628 101.715 204.782 102.178 204.947 102.676C205.117 103.188 205.273 103.658 205.415 104.085C205.556 104.512 205.66 104.826 205.726 105.025C205.882 105.495 206.162 105.86 206.564 106.122C206.986 106.393 207.596 106.396 208.393 106.132C208.934 105.952 209.326 105.704 209.568 105.386C209.829 105.078 209.913 104.687 209.819 104.212C209.762 103.899 209.661 103.522 209.514 103.081C209.382 102.635 209.231 102.179 209.061 101.714C208.905 101.244 208.754 100.812 208.607 100.418C208.475 100.02 208.376 99.7209 208.31 99.5217C208.295 99.4789 208.236 99.3957 208.132 99.2722C208.042 99.1442 207.876 99.1202 207.634 99.2004L204.196 100.341ZM204.124 112.307C203.965 112.651 203.872 113.075 203.845 113.581C203.835 114.098 203.857 114.626 203.91 115.164C203.981 115.715 204.048 116.191 204.111 116.591C204.134 116.739 204.16 116.909 204.19 117.102C204.221 117.295 204.255 117.464 204.293 117.61C204.4 118.2 204.548 118.709 204.736 119.135C204.939 119.558 205.208 119.873 205.544 120.079C205.895 120.282 206.351 120.34 206.915 120.251C207.596 120.145 208.013 119.898 208.165 119.509C208.317 119.121 208.34 118.586 208.233 117.905C208.198 117.682 208.161 117.445 208.122 117.193C208.082 116.941 208.041 116.675 207.997 116.393C207.953 116.111 207.902 115.785 207.844 115.415C207.779 115 207.728 114.575 207.69 114.141C207.667 113.704 207.702 113.296 207.795 112.917C207.902 112.536 208.103 112.217 208.396 111.958C208.705 111.697 209.17 111.518 209.793 111.421C210.519 111.307 211.109 111.344 211.563 111.531C212.02 111.733 212.382 112.056 212.649 112.5C212.915 112.944 213.126 113.466 213.28 114.064C213.437 114.677 213.57 115.332 213.679 116.028C213.743 116.443 213.809 116.911 213.875 117.432C213.944 117.968 213.984 118.471 213.997 118.939C214.012 119.423 213.966 119.809 213.86 120.099C213.867 120.341 213.821 120.531 213.721 120.668C213.623 120.82 213.485 120.909 213.307 120.937C213.248 120.947 213.174 120.958 213.085 120.972C213.011 120.984 212.937 120.995 212.863 121.007C212.789 121.018 212.737 121.026 212.707 121.031C212.834 120.875 212.918 120.634 212.959 120.309C212.999 119.983 213.01 119.617 212.992 119.21C212.991 118.816 212.969 118.432 212.926 118.059C212.897 117.684 212.865 117.378 212.828 117.141L212.623 115.829C212.539 115.296 212.417 114.806 212.256 114.361C212.096 113.915 211.852 113.574 211.527 113.336C211.218 113.111 210.768 113.045 210.175 113.137C209.715 113.209 209.389 113.352 209.194 113.564C209.002 113.792 208.895 114.081 208.875 114.434C208.869 114.784 208.903 115.196 208.977 115.67C209.067 116.248 209.147 116.76 209.217 117.204C209.286 117.649 209.343 118.012 209.387 118.294C209.489 118.946 209.52 119.533 209.48 120.055C209.455 120.575 209.272 121.006 208.931 121.348C208.604 121.688 208.041 121.92 207.241 122.045C206.455 122.168 205.805 122.087 205.29 121.804C204.777 121.535 204.377 121.111 204.089 120.534C203.804 119.971 203.579 119.308 203.414 118.544C203.341 118.176 203.278 117.822 203.225 117.481C203.157 117.142 203.101 116.786 203.058 116.414C203.005 116.073 202.958 115.678 202.918 115.228C202.878 114.779 202.856 114.343 202.85 113.918C202.862 113.507 202.913 113.157 203.005 112.869C203.114 112.594 203.287 112.438 203.524 112.401L204.124 112.307ZM214.641 124.023L214.673 134.26L213.66 134.263L213.647 130.011L205.052 130.038C204.767 130.039 204.572 130.002 204.467 129.927C204.362 129.867 204.309 129.703 204.308 129.433L204.304 128.33L213.642 128.301L213.628 124.026L214.641 124.023ZM203.709 139.213L207.876 139.791L213.926 136.792L214.539 136.469L214.223 138.742L208.909 141.184L213.351 145.026L213.134 146.586L212.578 146.01L207.641 141.485L204.254 141.015C204.058 141.003 203.904 140.966 203.792 140.905C203.694 140.846 203.622 140.76 203.578 140.648C203.547 140.538 203.548 140.371 203.579 140.149L203.709 139.213ZM211.837 151.632L202.831 149.08L200.948 155.726L199.995 155.456L202.345 147.165L211.588 149.784C211.747 149.829 211.875 149.873 211.972 149.916C212.069 149.959 212.134 150.032 212.167 150.135C212.2 150.238 212.19 150.383 212.137 150.571L211.837 151.632ZM199.167 157.38L207.949 161.33C208.196 161.441 208.351 161.552 208.416 161.663C208.481 161.775 208.461 161.947 208.357 162.179L204.693 170.326L203.79 169.92L206.992 162.799L203.853 161.387L200.918 167.912L200.015 167.506L202.95 160.981L199.359 159.366L196.156 166.486L195.253 166.08L199.167 157.38Z" fill="white"/>
<path d="M130.246 197.25C167.663 197.25 197.996 166.917 197.996 129.5C197.996 92.0827 167.663 61.75 130.246 61.75C92.8288 61.75 62.4961 92.0827 62.4961 129.5C62.4961 166.917 92.8288 197.25 130.246 197.25Z" fill="white"/>
<path d="M142.844 1.13929C142.611 1.80596 141.144 5.7393 139.644 9.87262C125.411 48.306 118.277 67.906 117.277 71.1393L116.844 72.5727L119.211 73.706C120.544 74.3392 121.71 74.7727 121.844 74.606C121.977 74.4727 123.41 69.9392 124.977 64.5392C126.544 59.1392 128.744 51.7727 129.811 48.206C130.877 44.6392 132.811 37.9392 134.144 33.3727C135.444 28.7727 137.177 22.7726 137.977 20.0393C140.311 12.0059 143.51 0.139293 143.377 0.00595918C143.31 -0.0607074 143.077 0.439293 142.844 1.13929Z" fill="url(#paint0_linear_1_4)"/>
<path d="M62.5444 6.37285C65.2444 11.4729 85.7109 46.3395 96.9777 65.0395C110.411 87.2729 112.778 91.2395 114.444 94.1395C116.411 97.5395 117.544 98.7394 119.211 99.173C122.711 100.039 127.744 104.639 130.844 109.739C138.144 121.839 139.678 132.806 135.311 141.773C133.144 146.173 129.178 149.673 124.544 151.273C121.678 152.239 117.144 152.306 114.578 151.439C112.478 150.706 109.744 148.339 109.211 146.806C108.811 145.706 108.811 145.706 108.944 147.173C109.211 149.906 111.944 152.773 115.711 154.239C118.244 155.239 123.644 155.306 126.644 154.406C135.344 151.806 142.011 144.406 144.844 134.206C145.544 131.673 145.644 130.673 145.644 125.039C145.644 118.639 145.478 117.206 144.111 112.373C141.211 102.206 131.411 84.2395 126.011 79.273C123.978 77.373 120.711 75.3395 116.478 73.2062C110.278 70.1395 109.211 69.1062 102.178 59.7062C86.6444 38.973 78.9777 28.6395 75.3109 23.5395C67.5777 12.7729 61.9109 5.1395 62.5444 6.37285ZM121.478 84.9395C121.478 86.1062 119.944 91.2062 119.578 91.2062C118.778 91.2062 117.811 89.473 117.811 87.973C117.811 86.773 118.011 86.3062 118.778 85.5062C119.778 84.5062 121.478 84.173 121.478 84.9395ZM123.444 85.7395C125.111 87.873 123.544 91.5395 120.978 91.5395C120.344 91.5395 120.344 91.673 121.144 88.4395C122.178 84.2729 122.244 84.2062 123.444 85.7395Z" fill="url(#paint1_linear_1_4)"/>
<path d="M140.843 22.6073C139.543 27.8074 136.677 39.0739 134.477 47.7074C132.31 56.3074 129.61 66.6407 128.51 70.6739L126.51 77.9407L128.31 80.0739C129.71 81.7074 130.143 82.0407 130.277 81.6074C130.477 81.0407 133.943 63.4407 137.277 46.2074C140.677 28.6074 143.51 13.4406 143.377 13.3406C143.31 13.274 142.177 17.4406 140.843 22.6073Z" fill="url(#paint2_linear_1_4)"/>
<path d="M81.0098 27.707C88.2765 38.407 98.043 52.4402 103.41 59.8737C105.343 62.5402 107.443 65.4402 108.077 66.307C108.71 67.207 110.043 68.507 111.01 69.2402C113.343 70.9402 116.143 72.607 116.143 72.2402C116.143 72.0737 115.077 70.4737 113.743 68.6737C111.043 64.9737 89.7765 37.1737 86.443 33.007C85.2765 31.5402 82.443 27.9737 80.143 25.0402C73.8765 17.107 73.943 17.2403 81.0098 27.707Z" fill="url(#paint3_linear_1_4)"/>
<path d="M133.177 85.94C133.41 86.3733 134.243 87.8733 135.043 89.3065C143.443 104.173 147.143 115.84 146.71 125.873C146.443 131.407 145.577 134.873 141.677 145.307C136.743 158.507 135.943 161.94 136.243 168.007C136.477 172.44 137.077 174.773 138.91 178.54C140.91 182.64 144.277 186.007 148.31 187.94C151.01 189.207 151.543 189.373 154.343 189.473C163.01 189.873 168.477 184.573 169.043 175.373C169.41 168.773 166.477 161.873 161.41 157.373C159.243 155.507 155.177 153.407 152.577 152.873C149.91 152.307 145.677 152.573 143.743 153.473C142.843 153.84 142.143 154.073 142.143 153.94C142.143 153.807 143.177 150.54 144.443 146.707C147.977 136.04 148.31 134.14 148.31 125.707C148.277 119.773 148.177 118.173 147.543 115.34C145.61 106.407 141.11 96.44 135.41 88.44C133.143 85.2733 132.377 84.44 133.177 85.94ZM148.477 155.74C145.877 156.44 144.177 157.34 142.71 158.773C141.11 160.307 140.143 162.173 140.177 163.607C140.177 164.64 140.21 164.607 140.61 163.14C141.143 161.14 142.377 159.573 144.377 158.24C151.077 153.807 160.143 157.14 164.443 165.607C166.11 168.907 166.61 171.24 166.41 175.107C166.277 177.573 166.043 178.54 165.31 180.04C163.543 183.673 160.81 185.507 156.777 185.807C149.81 186.307 143.51 180.74 140.543 171.54C138.61 165.607 138.91 162.007 141.543 159.007C143.443 156.873 146.71 155.24 149.143 155.24C150.177 155.24 150.11 155.307 148.477 155.74Z" fill="#131313"/>
<path d="M109.877 92.3063C109.477 93.6063 109.144 94.9395 109.144 95.2395C109.144 95.5395 110.077 97.2063 111.211 98.9062C115.077 104.84 116.111 108.206 115.144 112.173C114.477 115.006 106.944 127.439 101.211 135.139C99.5107 137.439 99.1439 138.173 99.1439 139.24C99.1439 140.04 99.9774 142.706 101.277 146.139C102.477 149.239 103.544 152.173 103.677 152.706C103.877 153.54 103.844 153.606 103.277 153.373C100.277 152.139 98.9774 151.773 96.8107 151.639C87.0107 150.973 77.4107 159.506 75.8107 170.339C75.1107 174.906 75.8774 178.573 78.7774 184.639C79.8439 186.873 80.8107 189.039 80.9439 189.439C81.5107 191.273 81.7107 193.84 81.4439 195.706C81.0439 198.24 79.0107 202.506 77.1107 204.873C74.9774 207.506 74.8107 207.84 76.4107 206.606C80.0439 203.739 83.3107 199.073 84.5439 195.073C85.0774 193.239 85.1774 192.34 85.0107 190.473C84.8107 188.306 84.8439 188.14 85.3774 188.406C86.5774 188.973 92.0774 188.939 94.0774 188.373C98.6774 187.039 102.644 183.806 105.344 179.24C107.277 175.973 108.044 173.873 108.677 170.106C109.377 166.206 109.177 163.24 107.644 155.24C106.144 147.306 105.911 144.106 106.611 140.906C107.577 136.306 109.277 133.539 120.511 118.373C123.944 113.706 125.477 111.339 125.477 110.606C125.477 109.839 122.811 106.439 119.811 103.373C116.311 99.8062 114.844 97.7395 112.477 92.9395C111.644 91.2727 110.911 89.9062 110.811 89.9062C110.711 89.9062 110.311 90.9728 109.877 92.3063ZM100.344 155.773C102.111 156.706 103.677 158.34 104.744 160.373C106.011 162.773 105.977 166.906 104.677 170.706C102.377 177.34 99.0439 181.74 94.6439 183.906C92.6107 184.906 91.9439 185.039 89.3107 185.139C86.4439 185.273 86.2107 185.206 84.1439 184.139C80.3774 182.206 78.5774 179.006 78.2439 173.873C77.9439 168.706 79.5439 164.273 83.1439 160.439C85.6439 157.74 87.3107 156.606 90.1107 155.639C93.0439 154.606 98.2107 154.673 100.344 155.773Z" fill="#131313"/>
<path d="M92.0774 157.473C89.8107 158.273 86.8441 160.573 84.8774 162.973C83.2774 164.94 80.2441 170.107 80.5441 170.373C80.6106 170.44 81.1441 169.573 81.7441 168.44C84.2106 163.673 88.4106 159.873 92.7106 158.54C96.5774 157.34 99.7774 157.773 102.111 159.74C103.677 161.107 104.477 162.94 104.811 166.04L105.044 168.373L105.111 166.34C105.177 162.273 103.577 159.307 100.411 157.74C99.0106 157.04 98.2106 156.873 96.1774 156.873C94.6441 156.907 93.0107 157.14 92.0774 157.473Z" fill="#131313"/>
<path d="M118.811 99.6389C118.811 99.7389 119.844 100.806 121.111 102.006C128.444 109.106 134.144 122.106 134.144 131.772C134.144 139.039 130.911 145.706 125.811 148.906C124.977 149.439 124.477 149.872 124.677 149.872C125.511 149.872 129.277 147.006 130.544 145.406C132.211 143.306 133.644 140.239 134.344 137.272C135.044 134.339 135.011 128.639 134.311 125.139C132.644 116.972 128.077 108.039 123.077 103.139C120.911 101.039 118.811 99.3057 118.811 99.6389Z" fill="#131313"/>
<path opacity="0.6" d="M86.8366 57.3672C74.9456 63.9977 64.8783 73.4654 57.5308 84.9272C50.1833 96.3892 45.7838 109.49 44.7236 123.063C43.6631 136.637 45.9751 150.261 51.4536 162.725C56.9318 175.189 65.4068 186.105 76.1241 194.502" stroke="white" stroke-width="1.75" stroke-linecap="round"/>
<path opacity="0.6" d="M122.445 47.041C116.334 47.3828 110.28 48.4028 104.395 50.0825" stroke="white" stroke-width="1.75" stroke-linecap="round"/>
<path opacity="0.6" d="M85.6777 200.962C103.923 211.526 125.518 214.712 146.036 209.867C166.555 205.022 184.444 192.512 196.036 174.902" stroke="white" stroke-width="1.75" stroke-linecap="round"/>
<defs>
<linearGradient id="paint0_linear_1_4" x1="130.112" y1="0" x2="130.112" y2="74.6419" gradientUnits="userSpaceOnUse">
<stop stop-color="white"/>
<stop offset="1" stop-color="#131313"/>
</linearGradient>
<linearGradient id="paint1_linear_1_4" x1="145.561" y1="126.206" x2="62.5609" y2="6.20617" gradientUnits="userSpaceOnUse">
<stop offset="0.256149" stop-color="#131313"/>
<stop offset="1" stop-color="white"/>
</linearGradient>
<linearGradient id="paint2_linear_1_4" x1="134.945" y1="13.3398" x2="134.945" y2="81.7805" gradientUnits="userSpaceOnUse">
<stop stop-color="white"/>
<stop offset="1" stop-color="#131313"/>
</linearGradient>
<linearGradient id="paint3_linear_1_4" x1="95.8567" y1="19.4336" x2="95.8567" y2="72.2914" gradientUnits="userSpaceOnUse">
<stop stop-color="white"/>
<stop offset="1" stop-color="#131313"/>
</linearGradient>
</defs>
</svg>
